<svg xmlns="http://www.w3.org/2000/svg" xmlns:xlink="http://www.w3.org/1999/xlink"><symbol id="sprite-logo-light" fill="none" viewBox="0 0 180 47"><path fill="#fff" d="M39.84 46.77h-32.91a6.9 6.9 0 0 1-6.93-6.93v-32.91a6.9 6.9 0 0 1 6.93-6.93h32.91a6.9 6.9 0 0 1 6.93 6.93v32.91a6.96 6.96 0 0 1-6.93 6.93"/><path fill="#231815" d="M23.05 15.14s4.59-2.79 7.38-4.37c2.78-1.58 4.37-2.1 5.95-2.26a9 9 0 0 1 3.39.75l-5.05-3.16s-.68-.45-2.56-.22c-1.88.22-2.86.75-4.07 1.35-1.2.68-9.26 5.42-9.26 5.42zm12.05-2.11s2.33 3.24.52 8.96a19.7 19.7 0 0 1-6.32 9.19c-.23.23-2.87 1.73-2.87 1.73l.08 4.52s8.44-2.94 11.97-11.07c3.17-7.15 1.13-11-.45-12.65-.9-.98-2.93-.68-2.93-.68"/><path fill="#231815" d="m23.05 37.36-4.22-2.49v-22.14l4.22 2.4zm-12.88-6.48-4.22-2.56v-22.07l4.14 2.34z"/><path fill="#231815" d="M5.95 28.32s-1.05 9.34 6.55 12.73c4.37 1.95 7.6.83 9.11-.68 1.21-1.2 1.36-3.01 1.36-3.01l-4.22-2.56s0 .9-.67 1.58c-.76.83-1.96 1.65-4.67.3-3.47-1.81-3.32-5.8-3.32-5.8zm4.14-19.73 3.4-1.74-3.85-2.1-3.69 1.5z"/><path fill="#fff" d="M175.78 36.08h1.66v.37h-.68v1.73h-.37v-1.73h-.68zm1.96 0h.45l.68 1.35.68-1.35h.45v2.1h-.38v-1.5l-.67 1.28h-.23l-.68-1.28v1.5h-.3zm-4.22.15v2.1h-9.19c-2.26 0-2.26 0-2.26 2.19 0 3.24 0 3.24 3.17 3.24 1.66 0 3.31-.08 4.9 0 1.2.07 1.58-.38 1.43-1.5-.08-.69 0-1.44 0-2.27h2.33c0 1.28.08 2.49 0 3.77s-.9 2.03-2.1 2.1c-3.32.08-6.56.08-9.88 0-1.5 0-2.25-.97-2.25-2.48v-4.6q-.02-2.46 2.33-2.55c3.84-.08 7.6 0 11.52 0m-116.73-15.97h2.33v7.23c0 .15.15.3.3.3h9.12c.15 0 .3-.15.3-.3v-7.23h2.4c0 2.64.08 5.2 0 7.76 0 1.2-.82 1.96-1.95 1.96a246 246 0 0 1-10.55 0c-1.2 0-1.95-.83-1.95-2.11-.08-2.49 0-5.05 0-7.61m52.57 15.97h2.33v7.08c0 .15.15.3.3.3h10.55v2.18h-10.47c-2.11 0-2.79-.83-2.79-2.71.08-2.03.08-4.6.08-6.85m30.35.07h2.18v9.57h-2.18zm-35.4-11.37s.38-.6.38-.9c.45-1.81-.23-3.7-2.04-3.77-4.06-.15-8.13-.08-12.35-.08v9.72h11.37c2.94 0 3.4-2.18 2.94-4.22 0-.22-.3-.75-.3-.75m-2.49 2.79-8.96.07v-1.8h8.96c.16 0 .3.14.3.3v1.12c0 .15-.14.3-.3.3m0-3.54-8.96.08v-1.8h8.96c.16 0 .3.14.3.3v1.12c0 .15-.14.3-.3.3m15.6-2.1c-.76-1.5-1.89-1.81-3.4-1.81-1.58 0-2.63.3-3.38 1.8 0 0-2.87 5.13-4.52 7.92h2.93l4.07-7.39c.08-.07.15-.15.3-.15h1.36c.07 0 .22.08.3.15l4.07 7.38h2.93c-1.8-2.78-4.74-7.9-4.67-7.9m20.04-1.81h-2.49v7.53s-.37.08-.9-.38c-1.28-1.2-4.14-4.67-4.52-5.04 0 0 0-.08-.07-.08a6 6 0 0 0-.53-.6c-.9-.9-1.43-1.36-3.09-1.5h-2.18v9.7h2.48v-7.52s.38-.08.9.38c1.29 1.2 4.15 4.66 4.52 5.04 0 0 0 .08.08.08.22.3.45.52.53.6.9.9 1.43 1.35 3.08 1.5h2.19zm-66.28 17.85c0-1.13-.83-1.8-2.1-1.8h-12.51v9.56h12.5c1.2 0 2.04-.76 2.11-1.81zm-2.33 1.28v4.07c0 .15-.15.3-.3.3h-9.34a.3.3 0 0 1-.3-.3v-4.67c0-.15.14-.3.3-.3h9.49c.15 0 .15.15.15.3zm88.87-3.16h-2.49v7.53s-.38.07-.9-.38c-1.28-1.2-4.14-4.67-4.52-5.05l-.08-.07c-.22-.3-.45-.53-.52-.6-.9-.9-1.43-1.36-3.1-1.5h-2.17v9.7h2.48v-7.52s.38-.08.9.37c1.28 1.2 4.15 4.67 4.52 5.05l.08.07c.22.3.45.53.53.6.9.9 1.43 1.36 3.08 1.51h2.19zm-68.09 0c-.37 2.03-.98 4.67-1.43 6.7-.07.45-.22.75-.6.75-.45 0-.45-.3-.68-.75 0 0-1.5-4-2.26-5.72q-.43-1-1.43-.99h-1.8c-.68 0-1.13.3-1.44.99-.75 1.73-2.26 5.72-2.26 5.72-.15.45-.22.75-.67.75-.38 0-.53-.3-.6-.75-.46-2.11-.99-4.67-1.44-6.7h-2.56q.92 3.93 1.73 7.53c.23 1.05.53 2.1 1.89 2.03h2.03c.75 0 1.13-.53 1.5-1.58l2.2-5.8c.22-.6.3-.68.44-.68s.3.08.46.68l2.18 5.8c.37 1.05.75 1.58 1.5 1.58h2.04c1.35 0 1.66-.98 1.88-2.03.53-2.41 1.13-4.97 1.73-7.53zm16.87 3.99h-10.77c-.22 0-.37-.15-.37-.3v-1.13c0-.15.15-.3.37-.3h11.3v-2.19c-4.14 0-8.2-.07-12.35.08-1.73.07-2.19 1.65-2.19 3.61v1.88c0 2.04.16 4.15 3.1 4.15h11.37v-2.19h-11.3c-.23 0-.38-.15-.38-.3v-1.28c0-.15.15-.3.38-.3h11.3v-1.73zm17.78-4h2.33v7.09c0 .15.15.3.3.3h10.55v2.18h-10.47c-2.11 0-2.79-.83-2.79-2.71.08-2.03.08-4.6.08-6.85m-40.22-10.02h1.13c2.03-.08 2.26-1.13 2.26-2.94 0-1.65-.45-2.86-2.33-2.93h-12.13v9.71h2.26v-3.76h5.5l4.06 3.76h3.17c0-.07-3.92-3.84-3.92-3.84m-8.74-2.03v-1.81h9.04c.15 0 .3.15.3.3v1.13c0 .15-.15.3-.3.3z"/></symbol><use xlink:href="#sprite-logo-light" width="180" height="47"/><view id="sprite-logo-light-view" viewBox="0 0 180 47"/><symbol id="sprite-logo" fill="none" viewBox="0 0 142 36"><path fill="#231815" d="M31.28 36h-25.84a5.37 5.37 0 0 1-5.44-5.33v-25.34a5.37 5.37 0 0 1 5.44-5.33h25.84a5.37 5.37 0 0 1 5.44 5.33v25.34a5.4 5.4 0 0 1-5.44 5.33"/><path fill="#fff" d="M18.1 11.65s3.6-2.14 5.79-3.36 3.43-1.62 4.67-1.74a7 7 0 0 1 2.66.58l-3.96-2.43s-.53-.35-2.01-.18c-1.48.18-2.25.58-3.2 1.04l-7.27 4.18zm9.45-1.62s1.84 2.5.42 6.9a15 15 0 0 1-4.97 7.07c-.18.17-2.24 1.33-2.24 1.33l.05 3.48s6.63-2.26 9.4-8.52c2.49-5.5.9-8.46-.35-9.74-.7-.75-2.3-.52-2.3-.52m-9.47 18.72-3.3-1.9v-17.05l3.3 1.85zm-10.1-4.98-3.32-1.97v-16.99l3.25 1.8z"/><path fill="#fff" d="M4.67 21.8s-.83 7.19 5.15 9.8c3.42 1.5 5.97.63 7.15-.53.95-.92 1.06-2.32 1.06-2.32l-3.3-1.97s0 .7-.54 1.22c-.59.64-1.54 1.27-3.67.23-2.72-1.39-2.6-4.46-2.6-4.46zm3.25-15.2 2.66-1.32-3.01-1.63-2.9 1.16z"/><path fill="#231815" d="M138.01 27.77h1.3v.29h-.53v1.33h-.3v-1.33h-.53zm1.54 0h.35l.53 1.04.54-1.04h.35v1.62h-.3v-1.16l-.53.99h-.17l-.54-.99v1.16h-.23zm-3.31.11v1.63h-7.22c-1.77 0-1.77 0-1.77 1.68 0 2.5 0 2.5 2.48 2.5 1.3 0 2.6-.07 3.85 0 .94.05 1.24-.3 1.12-1.17-.06-.52 0-1.1 0-1.74h1.83c0 .99.06 1.92 0 2.9s-.7 1.57-1.65 1.63c-2.6.05-5.15.05-7.75 0-1.18 0-1.77-.76-1.77-1.92v-3.53q-.02-1.9 1.83-1.97c3.01-.06 5.97 0 9.05 0m-91.66-12.3h1.84v5.57c0 .12.12.23.23.23h7.16c.12 0 .24-.11.24-.23v-5.57h1.89c0 2.03.06 4 0 5.98 0 .92-.65 1.5-1.54 1.5-2.84.06-5.38.06-8.28 0-.94 0-1.54-.63-1.54-1.62-.05-1.91 0-3.88 0-5.86m41.28 12.3h1.83v5.44c0 .12.12.24.24.24h8.27v1.68h-8.21c-1.66 0-2.2-.64-2.2-2.09.07-1.57.07-3.54.07-5.28m23.83.06h1.71v7.36h-1.71zm-27.8-8.75s.3-.47.3-.7c.36-1.39-.18-2.84-1.6-2.9-3.19-.11-6.38-.05-9.7-.05v7.47h8.94c2.3 0 2.66-1.68 2.3-3.24 0-.18-.23-.58-.23-.58m-1.96 2.14-7.03.06v-1.39h7.03c.12 0 .24.12.24.23v.87c0 .12-.12.23-.24.23m0-2.72-7.03.06v-1.4h7.03c.12 0 .24.12.24.24v.87c0 .11-.12.23-.24.23m12.25-1.62c-.6-1.16-1.48-1.4-2.67-1.4-1.24 0-2.07.24-2.66 1.4 0 0-2.24 3.94-3.54 6.08h2.3l3.2-5.68q.06-.1.23-.11h1.06c.06 0 .18.05.24.11l3.2 5.68h2.3a97 97 0 0 1-3.67-6.08m15.73-1.4h-1.95v5.8s-.3.06-.7-.29c-1.01-.93-3.26-3.6-3.56-3.88 0 0 0-.06-.05-.06a4 4 0 0 0-.42-.46c-.7-.7-1.12-1.05-2.42-1.16h-1.72v7.48h1.95v-5.8s.3-.06.71.29c1 .92 3.25 3.6 3.55 3.88a5 5 0 0 0 .47.52c.71.7 1.13 1.05 2.43 1.16h1.71zm-52.03 13.74c0-.87-.65-1.39-1.66-1.39h-9.81v7.36h9.81c.95 0 1.6-.57 1.66-1.39zm-1.84.99v3.13c0 .12-.11.23-.23.23h-7.33c-.12 0-.24-.11-.24-.23v-3.6c0-.11.12-.23.24-.23h7.45c.12 0 .12.12.12.24zm69.78-2.44h-1.95v5.8s-.3.06-.71-.29c-1-.93-3.25-3.6-3.55-3.88l-.06-.06c-.18-.23-.35-.4-.41-.46-.71-.7-1.13-1.05-2.43-1.16h-1.71v7.47h1.95v-5.8s.3-.05.7.3c1.02.92 3.26 3.6 3.56 3.88l.06.06c.17.23.35.4.41.46.71.7 1.12 1.05 2.42 1.16h1.72zm-53.45 0c-.3 1.57-.77 3.6-1.13 5.16-.06.35-.17.58-.47.58-.36 0-.36-.23-.53-.58 0 0-1.19-3.07-1.78-4.4q-.34-.77-1.12-.76h-1.42q-.79-.01-1.12.76c-.6 1.33-1.78 4.4-1.78 4.4-.11.35-.17.58-.53.58-.3 0-.41-.23-.47-.58-.36-1.62-.77-3.6-1.13-5.16h-2q.72 3.03 1.35 5.8c.18.81.42 1.62 1.48 1.57h1.6c.59 0 .89-.4 1.18-1.22l1.72-4.47c.17-.46.23-.52.35-.52s.24.06.36.52l1.71 4.47c.3.81.6 1.22 1.18 1.22h1.6c1.06 0 1.3-.76 1.48-1.57.41-1.85.89-3.83 1.36-5.8zm13.24 3.08h-8.45c-.18 0-.3-.12-.3-.24v-.86c0-.12.12-.24.3-.24h8.86v-1.68c-3.25 0-6.44-.06-9.7.06-1.35.06-1.7 1.27-1.7 2.78v1.45c0 1.57.11 3.19 2.42 3.19h8.92v-1.68h-8.87c-.17 0-.29-.12-.29-.23v-.99c0-.11.12-.23.3-.23h8.87v-1.33zm13.96-3.08h1.83v5.45c0 .12.12.24.23.24h8.28v1.68h-8.22c-1.65 0-2.18-.64-2.18-2.09.06-1.57.06-3.54.06-5.28m-31.58-7.7h.89c1.6-.06 1.77-.88 1.77-2.27 0-1.27-.35-2.2-1.83-2.26h-9.52v7.48h1.77v-2.9h4.32l3.2 2.9h2.47c0-.06-3.07-2.96-3.07-2.96m-6.86-1.56v-1.4h7.1c.11 0 .23.12.23.24v.87c0 .11-.11.23-.23.23z"/></symbol><use xlink:href="#sprite-logo" width="142" height="36" y="47"/><view id="sprite-logo-view" viewBox="0 47 142 36"/><symbol id="sprite-master-card" fill="none" viewBox="0 0 49 29"><path fill="#717171" d="M48.76 14.5c0 7.96-6.47 14.5-14.5 14.5-7.95 0-14.5-6.54-14.5-14.5a14.5 14.5 0 0 1 29 0"/><path fill="#4D4D4D" d="M29.35 14.57c0-1.04-.14-2.08-.3-3.04h-8.92c.08-.52.23-.97.38-1.57h7.95q-.24-.78-.6-1.56h-6.76c.22-.52.52-.96.82-1.56h5.13q-.45-.78-1.12-1.56h-2.82c.44-.52.89-.97 1.49-1.49a14 14 0 0 0-9.75-3.79c-7.88.22-14.42 6.54-14.42 14.5s6.47 14.5 14.5 14.5c3.8 0 7.14-1.49 9.74-3.8.52-.44.97-.96 1.49-1.55h-2.98a11 11 0 0 1-1.04-1.5h5.06c.3-.44.6-.96.82-1.55h-6.77a8 8 0 0 1-.6-1.56h7.96c.45-1.34.74-2.83.74-4.47"/><path fill="#fff" d="m20.06 18.22.23-1.34c-.08 0-.23.07-.38.07-.52 0-.6-.3-.52-.44l.45-2.68h.82l.22-1.49h-.74l.15-.89h-1.57s-.89 5.06-.89 5.65c0 .9.52 1.34 1.27 1.34.44 0 .81-.15.96-.22m.52-2.46c0 2.16 1.49 2.68 2.68 2.68 1.11 0 1.63-.22 1.63-.22l.3-1.49s-.82.37-1.63.37c-1.71 0-1.42-1.26-1.42-1.26h3.13s.22-.97.22-1.41c0-.97-.52-2.23-2.23-2.23-1.49-.08-2.68 1.63-2.68 3.57m2.68-2.23c.82 0 .67.96.67 1.04h-1.71c.07-.08.22-1.04 1.04-1.04m9.74 4.68.3-1.71s-.75.37-1.34.37c-1.04 0-1.56-.82-1.56-1.78 0-1.86.89-2.83 2-2.83.75 0 1.42.45 1.42.45l.22-1.64s-.9-.37-1.79-.37c-1.78 0-3.49 1.56-3.49 4.46 0 1.93.9 3.2 2.75 3.2.67.07 1.49-.15 1.49-.15m-21.34-6.1a6 6 0 0 0-1.86.3l-.22 1.34s.67-.3 1.7-.3c.53 0 .97.07.97.52 0 .3-.07.37-.07.37h-.67c-1.34 0-2.75.52-2.75 2.3 0 1.42.89 1.72 1.49 1.72 1.04 0 1.56-.67 1.63-.67l-.07.6h1.26l.6-4.25c0-1.86-1.5-1.93-2.01-1.93m.3 3.42c0 .22-.15 1.49-1.04 1.49-.45 0-.6-.37-.6-.6 0-.37.22-.89 1.41-.89zm3.2 2.83c.37 0 2.3.07 2.3-2.01 0-1.94-1.86-1.56-1.86-2.3 0-.38.3-.53.82-.53.22 0 1.04.08 1.04.08l.22-1.41s-.52-.15-1.49-.15c-1.11 0-2.3.44-2.3 2 0 1.79 1.93 1.64 1.93 2.3 0 .46-.52.53-.89.53-.67 0-1.41-.22-1.41-.22l-.23 1.4c.15.16.6.3 1.86.3m30.64-7.43-.3 2.08s-.6-.74-1.49-.74c-1.41 0-2.6 1.7-2.6 3.72 0 1.26.6 2.53 1.93 2.53.9 0 1.49-.6 1.49-.6l-.08.52h1.57l1.11-7.36zm-.75 4.02c0 .81-.37 1.93-1.26 1.93-.52 0-.82-.45-.82-1.26 0-1.27.52-2.01 1.26-2.01.52.07.82.44.82 1.34m-41.79 3.34.9-5.5.14 5.5h1.04l2.01-5.5-.81 5.5h1.63l1.26-7.36h-2.52l-1.56 4.54-.08-4.54h-2.23l-1.26 7.36z"/><path fill="#fff" d="M27.05 18.3c.45-2.54.52-4.62 1.64-4.25.14-.96.37-1.4.52-1.78h-.3c-.67 0-1.27.9-1.27.9l.15-.83h-1.48l-.97 5.95zm9.52-6.18a6 6 0 0 0-1.86.3l-.22 1.34s.67-.3 1.7-.3c.53 0 .97.07.97.52 0 .3-.07.37-.07.37h-.67c-1.34 0-2.75.52-2.75 2.3 0 1.42.9 1.72 1.49 1.72 1.04 0 1.56-.67 1.63-.67l-.07.6h1.41l.6-4.25c0-1.86-1.64-1.93-2.16-1.93m.37 3.42c0 .22-.15 1.49-1.04 1.49-.45 0-.6-.37-.6-.6 0-.37.23-.89 1.42-.89zm2.98 2.75c.44-2.53.51-4.6 1.63-4.24.15-.96.37-1.4.52-1.78h-.3c-.66 0-1.26.9-1.26.9l.15-.83h-1.49l-.96 5.95z"/></symbol><use xlink:href="#sprite-master-card" width="49" height="29" y="83"/><view id="sprite-master-card-view" viewBox="0 83 49 29"/><symbol id="sprite-menu-open" fill="none" viewBox="0 0 40 24"><path fill="currentColor" d="M8.33 16.2h23.34v1.6h-23.34zm0-5h23.34v1.6h-23.34zm0-5h23.34v1.6h-23.34z"/></symbol><use xlink:href="#sprite-menu-open" width="40" height="24" y="112"/><view id="sprite-menu-open-view" viewBox="0 112 40 24"/><symbol id="sprite-mir" fill="none" viewBox="0 0 46 13"><g fill="#fff" clip-path="url(#a)"><path d="M16.42 12.98h-4.1v-7.62h-.26l-2.29 7.63h-3.1l-2.29-7.63h-.26v7.59c-.16.06-3.87.07-4.12.02v-12.94l.26-.02h4.33c.8.03 1.33.48 1.64 1.21q.2.52.33 1.04l1.45 5.2.07.2h.29l.07-.23 1.63-5.78q.16-.63.62-1.12.47-.47 1.12-.5.38-.03.77-.02h3.83c.05.18.05 12.73.01 12.97m14.7 0h-4.18v-7.62h-.33l-.1.2-2.6 5.99a2.3 2.3 0 0 1-1.66 1.42l-.24.02h-3.85v-12.94c.14-.05 3.82-.07 4.18-.02l.02.28v7.34h.3l.1-.22q1.34-2.97 2.64-5.95a2.4 2.4 0 0 1 1.17-1.3 2 2 0 0 1 .77-.17h3.76c.05.18.06 12.74.01 12.98"/><path fill-opacity=".5" d="M45.9 5.37h-7.63c-.53 0-1.05 0-1.57-.13a5 5 0 0 1-2.08-1.16 6 6 0 0 1-1.77-2.74 5 5 0 0 1-.24-1.3l.23-.02h8.59q1.2-.02 2.26.55 1.88 1.06 2.25 3.25.13.72 0 1.44z"/><path d="M45.63 6.2q-.18.54-.5.96a4.7 4.7 0 0 1-2.74 1.82 5 5 0 0 1-1.25.14h-4.35v3.83c-.16.06-3.75.07-4 .02v-6.74l.02-.02.02-.01.08-.02h12.64z"/></g><defs><clipPath id="a"><path fill="#fff" d="M0 0h46v13h-46z"/></clipPath></defs></symbol><use xlink:href="#sprite-mir" width="46" height="13" y="136"/><view id="sprite-mir-view" viewBox="0 136 46 13"/><symbol id="sprite-search" fill="none" viewBox="0 0 23 23"><path fill="currentColor" d="M11.06 20.14c-5.01 0-9.09-4.08-9.09-9.08s4.08-9.09 9.09-9.09a9.1 9.1 0 0 1 0 18.17m0-16.84a7.76 7.76 0 1 0 .01 15.53 7.76 7.76 0 0 0-.01-15.53m9.3 17.73a.7.7 0 0 1-.47-.2l-1.77-1.77a.67.67 0 0 1 0-.94.67.67 0 0 1 .94 0l1.77 1.77a.67.67 0 0 1 0 .94.7.7 0 0 1-.47.2"/></symbol><use xlink:href="#sprite-search" width="23" height="23" y="149"/><view id="sprite-search-view" viewBox="0 149 23 23"/><symbol id="sprite-shop" fill="none" viewBox="0 0 21 27"><path stroke="#fff" stroke-linecap="round" stroke-linejoin="round" stroke-width="1.5" d="M1.17 9.9a2.37 2.37 0 0 1 2.33-2.4h14a2.37 2.37 0 0 1 2.33 2.4v10.8a4.74 4.74 0 0 1-4.66 4.8h-9.34a4.74 4.74 0 0 1-4.66-4.8z" clip-rule="evenodd"/><path stroke="#fff" stroke-linecap="round" stroke-linejoin="round" stroke-width="1.5" d="M15.17 11.1v-4.8a4.74 4.74 0 0 0-4.67-4.8 4.74 4.74 0 0 0-4.67 4.8v4.8"/></symbol><use xlink:href="#sprite-shop" width="21" height="27" y="172"/><view id="sprite-shop-view" viewBox="0 172 21 27"/><symbol id="sprite-visa" fill="none" viewBox="0 0 45 14"><g fill="#fff" clip-path="url(#a)"><path d="M45 13.73v.08h-3.37l-.44-2.03h-4.68l-.76 2.02h-3.82l.05-.13 4.27-9.82 1.12-2.56q.22-.52.71-.8.5-.25 1.07-.24h2.92l.93 4.33.97 4.49.89 4.08zm-7.44-4.73h3.03l-1.09-5.08zm-7.53-9 .4.05q1.14.11 2.22.5l.07.03-.5 2.92-.76-.3a6.4 6.4 0 0 0-2.82-.33q-.62.06-1.13.4a1 1 0 0 0-.4.56q-.12.45.22.75.29.28.62.48l1.42.74c.69.34 1.33.73 1.86 1.27.5.5.84 1.1.93 1.8a4 4 0 0 1-.35 2.25 4.5 4.5 0 0 1-2.19 2.12 7 7 0 0 1-2.17.65l-1.16.11h-.8a12 12 0 0 1-3.09-.49l-.62-.21.51-3.05.7.3a7 7 0 0 0 3.98.55q.46-.08.85-.33c.38-.24.6-.57.55-1.02a1 1 0 0 0-.26-.56 3 3 0 0 0-.75-.58l-1.34-.68a7 7 0 0 1-1.85-1.31 3 3 0 0 1-.85-2.54 4 4 0 0 1 1.76-2.86 6 6 0 0 1 2.6-1.05q.52-.1 1.05-.14l.06-.03z"/><path fill-opacity=".5" d="m0 .46.07-.22h5.76q.42 0 .82.12.75.26.92 1.02l.4 1.9.54 2.68.3 1.42v.12l-.05-.11a10 10 0 0 0-1.02-1.87 11 11 0 0 0-3.3-3.14q-.3-.19-.6-.35l-.67-.37a15 15 0 0 0-3.05-1.1q-.05-.03-.12-.02z"/><path d="M3.84 2.03q.3.16.6.35 1.99 1.24 3.3 3.14.61.88 1.02 1.87l.05.1.34 1.56.1.44 3.56-9.24h3.85l-.2.5-5.46 12.88c-.08.2-.03.16-.23.16h-3.69l-.21-.76-2.8-10.16zm15.66 11.77h-3.64l2.28-13.55h3.64z"/></g><defs><clipPath id="a"><path fill="#fff" d="M0 0h45v14h-45z"/></clipPath></defs></symbol><use xlink:href="#sprite-visa" width="45" height="14" y="199"/><view id="sprite-visa-view" viewBox="0 199 45 14"/></svg>